<svg width="348" height="244" viewBox="0 0 348 244" fill="none" xmlns="http://www.w3.org/2000/svg">
<path d="M2.33301 42.3943H71.8867C72.7617 42.3943 73.5159 43.0143 73.6855 43.8777L82.3613 88.4939C82.58 89.6253 81.7149 90.6764 80.5625 90.6765H11.0078C10.1336 90.6764 9.38001 90.0538 9.21289 89.1941L5.80664 71.6833L4.07324 62.7761L0.53418 44.574C0.315431 43.4431 1.17971 42.3943 2.33301 42.3943Z" stroke="white"/>
<path d="M68.3499 51.697C70.2107 51.697 71.7193 50.1885 71.7193 48.3276C71.7193 46.4668 70.2107 44.9583 68.3499 44.9583C66.489 44.9583 64.9805 46.4668 64.9805 48.3276C64.9805 50.1885 66.489 51.697 68.3499 51.697Z" fill="#FC6035"/>
<path d="M35.0778 74.1841C34.8855 74.1841 34.6921 74.1322 34.5171 74.023L25.2625 68.2335C24.9366 68.0283 24.7259 67.679 24.6968 67.2981C24.6679 66.9172 24.8222 66.5404 25.1109 66.2899L32.7881 59.5654C33.2274 59.1804 33.8971 59.2248 34.2807 59.6642C34.6657 60.1038 34.6218 60.7723 34.1822 61.1573L27.4157 67.084L35.6398 72.2288C36.1352 72.5385 36.2853 73.1916 35.9752 73.6867C35.775 74.0082 35.4298 74.1841 35.0778 74.1841ZM26.5071 67.8799L26.5016 67.8847C26.5037 67.8829 26.505 67.8815 26.5071 67.8799Z" fill="white"/>
<path d="M50.4241 74.184C50.0721 74.184 49.727 74.0081 49.5265 73.687C49.2166 73.1917 49.3668 72.5387 49.8619 72.2292L58.0867 67.0839L51.3202 61.1574C50.8808 60.7724 50.8367 60.1039 51.2217 59.6643C51.6053 59.2252 52.2749 59.1803 52.7143 59.5656L60.1999 66.1221C60.5325 66.4131 60.7102 66.8502 60.6752 67.2914C60.6402 67.733 60.3949 68.1367 60.0187 68.3715L50.9846 74.0231C50.8098 74.1321 50.6162 74.184 50.4241 74.184Z" fill="white"/>
<path d="M40.6267 75.2924C40.5145 75.2924 40.3994 75.2742 40.2872 75.236C39.7334 75.0482 39.4371 74.4475 39.6246 73.8944L44.8455 58.4973C45.0328 57.9442 45.6335 57.647 46.1873 57.835C46.7411 58.0227 47.0374 58.6234 46.8499 59.1765L41.6292 74.5736C41.4793 75.0146 41.0675 75.2924 40.6267 75.2924Z" fill="white"/>
<path d="M267.431 203.659H58.2112C57.1975 203.659 56.2405 203.192 55.617 202.392L7.92292 141.259C6.23731 139.099 7.77683 135.945 10.5171 135.945H219.737C220.75 135.945 221.708 136.412 222.331 137.211L270.025 198.345C271.711 200.505 270.171 203.659 267.431 203.659Z" fill="#FFF7EE"/>
<path d="M269.778 200.623H60.5639C59.4273 200.623 58.3795 200.11 57.6894 199.217L9.99258 138.09C9.54273 137.517 9.27765 136.83 9.22736 136.106C9.21439 135.912 9.36024 135.743 9.55456 135.729C9.7639 135.72 9.9168 135.863 9.93137 136.057C9.9721 136.648 10.1801 137.186 10.5487 137.656L58.2469 198.784C58.8034 199.505 59.648 199.918 60.5641 199.918H269.778C270.068 199.918 270.351 199.876 270.619 199.793C270.809 199.735 271.002 199.839 271.06 200.025C271.118 200.211 271.014 200.408 270.828 200.466C270.492 200.571 270.139 200.623 269.778 200.623Z" fill="black"/>
<path d="M150.207 145.939L138.745 86.1518C138.463 84.7156 137.315 84.0748 135.856 84.0748H44.823C42.9019 84.0748 41.4051 84.5629 41.7699 86.4465L46.4585 111.53L48.7264 123.188L53.1843 146.106L150.207 145.939Z" fill="#E0E0E0"/>
<path d="M145.5 141.566C146.234 141.565 146.787 140.897 146.65 140.176L136.931 88.7354C136.671 87.4071 135.609 86.8143 134.259 86.8143H50.0585C48.2814 86.8143 46.8971 87.2658 47.2345 89.008L51.5712 112.209L53.6691 122.992L56.993 140.76C57.0969 141.315 57.5825 141.718 58.1479 141.717L145.5 141.566Z" fill="#1B1533"/>
<path d="M53.1855 146.106L84.4138 184.724C85.0976 185.57 86.1267 186.061 87.2141 186.061H186.51C188.347 186.061 189.253 183.827 187.935 182.548L150.019 144.953L53.1855 146.106Z" fill="#E0E0E0"/>
<path d="M187.198 183.805H86.9711L86.8657 183.677L54.9241 145.109L43.2682 85.0638C43.2311 84.8727 43.3565 84.6877 43.5472 84.6506C43.7365 84.613 43.924 84.738 43.9611 84.9295L55.5826 144.798L87.3033 183.099H187.198C187.393 183.099 187.551 183.257 187.551 183.452C187.551 183.647 187.393 183.805 187.198 183.805Z" fill="black"/>
<path d="M150.019 145.307H55.2531C55.0581 145.307 54.9004 145.149 54.9004 144.954C54.9004 144.759 55.0581 144.601 55.2531 144.601H150.019C150.214 144.601 150.371 144.759 150.371 144.954C150.371 145.149 150.213 145.307 150.019 145.307Z" fill="black"/>
<path d="M174.249 176.759H89.7965C89.5589 176.759 89.3316 176.657 89.173 176.479L66.8656 151.313C66.6451 151.064 66.5928 150.721 66.7293 150.418C66.8656 150.115 67.1571 149.926 67.4898 149.926H149.364C149.586 149.926 149.802 150.017 149.957 150.174L174.842 175.34C175.079 175.579 175.149 175.935 175.019 176.246C174.889 176.558 174.587 176.759 174.249 176.759ZM67.3933 150.845L89.7009 176.011C89.725 176.038 89.7601 176.054 89.7967 176.054H174.25C174.324 176.054 174.356 176.004 174.368 175.975C174.38 175.946 174.393 175.889 174.341 175.836L149.455 150.67C149.431 150.646 149.398 150.632 149.364 150.632H67.4898C67.4174 150.632 67.3851 150.679 67.3726 150.707C67.3601 150.736 67.3457 150.791 67.3933 150.845Z" fill="black"/>
<path d="M100.598 125.263L102.138 133.183C102.234 133.678 102.668 134.036 103.172 134.036H134.63C135.294 134.036 135.792 133.431 135.666 132.78L131.742 112.601C131.645 112.104 131.211 111.747 130.707 111.747H99.2485C98.5845 111.747 98.0869 112.351 98.213 113.002L99.8137 121.235L100.598 125.263Z" fill="#B969FF"/>
<path d="M132.624 118.269H99.1691C98.9741 118.269 98.8164 118.111 98.8164 117.916C98.8164 117.721 98.9741 117.564 99.1691 117.564H132.624C132.819 117.564 132.977 117.721 132.977 117.916C132.977 118.111 132.819 118.269 132.624 118.269Z" fill="black"/>
<path d="M108.322 125.798H68.6661C68.0312 125.798 67.481 125.347 67.3611 124.719L65.4211 114.738L64.4336 109.659L63.0652 102.627L62.4163 99.2831C62.254 98.4578 62.8818 97.696 63.7212 97.696H103.378C104.012 97.696 104.555 98.1475 104.682 98.7753L105.43 102.627L109.627 124.211C109.782 125.029 109.154 125.798 108.322 125.798Z" fill="white"/>
<path d="M105.771 104.098H63.4061L62.4163 99.2829C62.254 98.4576 62.8818 97.6958 63.7212 97.6958H103.378C104.012 97.6958 104.555 98.1472 104.682 98.775L105.771 104.098Z" fill="#B969FF"/>
<path d="M91.1303 120.746C90.9353 120.746 90.7416 120.666 90.6019 120.508L80.2025 108.757C79.9443 108.465 79.9718 108.02 80.263 107.761C80.5545 107.504 81 107.529 81.2592 107.822L91.6586 119.573C91.9169 119.865 91.8893 120.311 91.5981 120.569C91.4636 120.688 91.2968 120.746 91.1303 120.746Z" fill="#FC6035"/>
<path d="M82.1011 120.994C81.9639 120.994 81.8249 120.954 81.703 120.871C81.3819 120.651 81.3 120.212 81.5198 119.89L89.8761 107.697C90.0966 107.376 90.5346 107.294 90.8571 107.514C91.1781 107.734 91.26 108.173 91.0402 108.495L82.6839 120.688C82.5467 120.887 82.3257 120.994 82.1011 120.994Z" fill="#FC6035"/>
<path d="M157.424 158.321H73.3859C73.1909 158.321 73.0332 158.163 73.0332 157.968C73.0332 157.773 73.1909 157.615 73.3859 157.615H157.423C157.618 157.615 157.776 157.773 157.776 157.968C157.776 158.163 157.619 158.321 157.424 158.321Z" fill="black"/>
<path d="M166.139 167.491H82.1027C81.9077 167.491 81.75 167.333 81.75 167.138C81.75 166.943 81.9077 166.785 82.1027 166.785H166.14C166.335 166.785 166.492 166.943 166.492 167.138C166.492 167.333 166.334 167.491 166.139 167.491Z" fill="black"/>
<path d="M108.946 176.759C108.853 176.759 108.76 176.722 108.69 176.65L83.8257 150.522C83.6915 150.381 83.6969 150.158 83.838 150.024C83.9786 149.89 84.2016 149.895 84.3368 150.036L109.201 176.163C109.336 176.305 109.33 176.528 109.189 176.662C109.121 176.727 109.033 176.759 108.946 176.759Z" fill="black"/>
<path d="M126.653 176.759C126.56 176.759 126.467 176.722 126.397 176.65L101.533 150.522C101.399 150.381 101.404 150.158 101.545 150.024C101.686 149.89 101.909 149.895 102.044 150.036L126.908 176.163C127.043 176.305 127.037 176.528 126.896 176.662C126.828 176.727 126.74 176.759 126.653 176.759Z" fill="black"/>
<path d="M158.78 176.759C158.687 176.759 158.594 176.722 158.524 176.65L133.66 150.522C133.525 150.381 133.531 150.158 133.672 150.024C133.813 149.89 134.036 149.895 134.171 150.036L159.035 176.163C159.17 176.305 159.164 176.528 159.023 176.662C158.955 176.727 158.867 176.759 158.78 176.759Z" fill="black"/>
<path d="M144.514 176.759C144.421 176.759 144.328 176.722 144.259 176.65L119.394 150.522C119.26 150.381 119.265 150.158 119.407 150.024C119.547 149.89 119.77 149.895 119.905 150.036L144.77 176.163C144.904 176.305 144.899 176.528 144.757 176.662C144.689 176.727 144.601 176.759 144.514 176.759Z" fill="black"/>
<path d="M109.704 134.339L112.38 131.724C112.481 131.626 112.63 131.615 112.716 131.7L120.264 139.053C120.352 139.139 120.505 139.126 120.605 139.023L123.057 136.506C123.158 136.403 123.167 136.251 123.079 136.164L115.612 128.89C115.522 128.802 115.534 128.645 115.638 128.543L118.205 126.037C118.337 125.908 118.316 125.705 118.165 125.647L104.249 120.304C104.053 120.228 103.831 120.454 103.908 120.65L109.323 134.295C109.381 134.441 109.576 134.464 109.704 134.339Z" fill="white"/>
<path d="M120.409 139.462C120.265 139.462 120.126 139.41 120.018 139.306L112.562 132.041L109.952 134.591C109.799 134.739 109.59 134.802 109.394 134.76C109.212 134.721 109.064 134.596 108.996 134.424L103.581 120.78C103.494 120.561 103.551 120.304 103.726 120.127C103.901 119.949 104.155 119.89 104.377 119.975L118.292 125.318C118.467 125.385 118.595 125.536 118.633 125.721C118.675 125.924 118.608 126.136 118.453 126.289L115.953 128.729L123.325 135.912C123.431 136.016 123.49 136.156 123.493 136.308C123.494 136.47 123.428 136.632 123.31 136.753L120.859 139.269C120.733 139.397 120.569 139.462 120.409 139.462ZM112.572 131.29C112.715 131.29 112.855 131.342 112.963 131.448L120.418 138.71L122.739 136.327L115.366 129.142C115.258 129.038 115.199 128.895 115.199 128.74C115.199 128.574 115.269 128.41 115.392 128.29L117.84 125.9L104.31 120.705L109.575 133.972L112.134 131.472C112.259 131.351 112.417 131.29 112.572 131.29Z" fill="black"/>
<path d="M199.605 67.4935H308.981C310.494 67.4935 311.797 68.5651 312.091 70.056V70.057L325.733 140.218C326.112 142.174 324.617 143.992 322.624 143.992H213.248C211.735 143.991 210.432 142.915 210.144 141.428L204.787 113.893L202.062 99.8851L196.496 71.2621C196.118 69.3073 197.612 67.4938 199.605 67.4935Z" stroke="white"/>
<path d="M305.89 78.2867C307.774 78.2867 309.301 76.7595 309.301 74.8755C309.301 72.9915 307.774 71.4642 305.89 71.4642C304.006 71.4642 302.479 72.9915 302.479 74.8755C302.479 76.7595 304.006 78.2867 305.89 78.2867Z" fill="#E0E0E0"/>
<path d="M299.778 96.7637H224.678C223.41 96.7637 222.381 95.735 222.381 94.4663C222.381 93.1975 223.41 92.1688 224.678 92.1688H299.778C301.047 92.1688 302.075 93.1975 302.075 94.4663C302.076 95.7348 301.047 96.7637 299.778 96.7637Z" fill="#B969FF"/>
<path d="M313.544 127.276H238.444C237.175 127.276 236.146 126.247 236.146 124.979C236.146 123.71 237.175 122.681 238.444 122.681H313.544C314.812 122.681 315.841 123.71 315.841 124.979C315.841 126.247 314.812 127.276 313.544 127.276Z" fill="#FC6035"/>
<path d="M328.042 111.982H243.612C242.343 111.982 241.314 110.953 241.314 109.684C241.314 108.415 242.343 107.387 243.612 107.387H328.042C329.311 107.387 330.339 108.415 330.339 109.684C330.339 110.953 329.311 111.982 328.042 111.982Z" fill="white"/>
<path d="M104.674 62.8048L111.792 99.3973C112.236 101.684 114.241 103.341 116.571 103.341H261.923C264.991 103.341 267.29 100.544 266.707 97.5362L248.578 4.29658C248.128 2.00345 246.123 0.352661 243.794 0.352661H98.4414C95.3737 0.352661 93.0747 3.1441 93.657 6.1517L101.053 44.1908L104.674 62.8048Z" fill="#6650BE"/>
<path d="M261.924 103.694H116.571C114.078 103.694 111.922 101.915 111.446 99.4644L93.3111 6.21884C93.0134 4.68091 93.4137 3.10658 94.4092 1.89949C95.4046 0.692397 96.8745 0 98.4416 0H243.794C246.285 0 248.444 1.77821 248.924 4.22879L267.054 97.4691C267.352 99.0086 266.951 100.585 265.954 101.794C264.958 103.001 263.49 103.694 261.924 103.694ZM98.4418 0.70514C97.0862 0.70514 95.8147 1.30402 94.9534 2.34797C94.0924 3.39191 93.7459 4.75372 94.0041 6.08414L112.139 99.3292C112.551 101.449 114.415 102.988 116.571 102.988H261.924C263.278 102.988 264.548 102.389 265.41 101.345C266.272 100.299 266.619 98.9349 266.361 97.6029L248.232 4.36327C247.816 2.24375 245.949 0.704911 243.794 0.704911H98.4418V0.70514Z" fill="black"/>
<path d="M240.099 12.382C242.039 12.382 243.612 10.8091 243.612 8.86878C243.612 6.9285 242.039 5.35559 240.099 5.35559C238.159 5.35559 236.586 6.9285 236.586 8.86878C236.586 10.8091 238.159 12.382 240.099 12.382Z" fill="#E0E0E0"/>
<path d="M229.052 12.382C230.993 12.382 232.565 10.8091 232.565 8.86878C232.565 6.9285 230.993 5.35559 229.052 5.35559C227.112 5.35559 225.539 6.9285 225.539 8.86878C225.539 10.8091 227.112 12.382 229.052 12.382Z" fill="#E0E0E0"/>
<path d="M217.384 12.382C219.325 12.382 220.897 10.8091 220.897 8.86878C220.897 6.9285 219.325 5.35559 217.384 5.35559C215.444 5.35559 213.871 6.9285 213.871 8.86878C213.871 10.8091 215.444 12.382 217.384 12.382Z" fill="#E0E0E0"/>
<path d="M251.085 16.9839H95.6945C95.4995 16.9839 95.3418 16.8263 95.3418 16.6313C95.3418 16.4363 95.4995 16.2786 95.6945 16.2786H251.085C251.28 16.2786 251.438 16.4363 251.438 16.6313C251.438 16.8263 251.28 16.9839 251.085 16.9839Z" fill="white"/>
<path d="M169.321 32.752H94.2213C92.9525 32.752 91.9238 31.7233 91.9238 30.4546C91.9238 29.1858 92.9525 28.1571 94.2213 28.1571H169.321C170.59 28.1571 171.618 29.1858 171.618 30.4546C171.618 31.7233 170.59 32.752 169.321 32.752Z" fill="white"/>
<path d="M192.149 49.1957H117.049C115.781 49.1957 114.752 48.167 114.752 46.8983C114.752 45.6295 115.781 44.6008 117.049 44.6008H192.149C193.418 44.6008 194.447 45.6295 194.447 46.8983C194.447 48.167 193.418 49.1957 192.149 49.1957Z" fill="white"/>
<path d="M188.835 65.2729H93.4439C92.1752 65.2729 91.1465 64.2442 91.1465 62.9754C91.1465 61.7067 92.1752 60.678 93.4439 60.678H188.835C190.104 60.678 191.132 61.7067 191.132 62.9754C191.132 64.2442 190.104 65.2729 188.835 65.2729Z" fill="white"/>
<path d="M250.906 81.35H142.631C141.363 81.35 140.334 80.3213 140.334 79.0526C140.334 77.7838 141.363 76.7551 142.631 76.7551H250.906C252.174 76.7551 253.203 77.7838 253.203 79.0526C253.203 80.3213 252.174 81.35 250.906 81.35Z" fill="white"/>
<path d="M266.929 49.1957H208.91C207.773 49.1957 206.713 48.4305 206.518 47.3099C206.267 45.8598 207.376 44.6008 208.78 44.6008H266.799C267.936 44.6008 268.996 45.366 269.191 46.4867C269.443 47.9368 268.333 49.1957 266.929 49.1957Z" fill="#FC6035"/>
<path d="M213.316 32.9134H181.84C180.702 32.9134 179.642 32.1482 179.448 31.0276C179.196 29.5775 180.306 28.3185 181.71 28.3185H213.186C214.323 28.3185 215.383 29.0837 215.578 30.2043C215.829 31.6544 214.72 32.9134 213.316 32.9134Z" fill="white"/>
<path d="M157.146 167.922C157.146 167.922 147.506 166.001 143.431 164.904C139.355 163.807 136.455 159.144 141.628 157.263C146.801 155.381 166.551 157.263 166.551 157.263L157.146 167.922Z" fill="white"/>
<path d="M139.619 158.622C139.619 158.622 135.045 162.279 132.224 159.457C129.402 156.636 132.067 153.657 137.397 150.052C142.726 146.447 148.369 142.998 151.818 143.468C151.818 143.468 158.871 139.555 173.485 147.23C185.864 153.732 163.417 158.673 163.417 158.673L139.619 158.622Z" fill="white"/>
<path d="M133.245 171.398C133.245 171.398 134.889 158.203 122.505 154.284C122.505 154.284 115.608 143.155 110.122 145.663C105.256 147.887 107.3 151.306 107.3 151.306C107.3 151.306 102.079 150.55 100.408 157.187C100.408 157.187 95.9164 157.262 94.1921 162.435C94.1921 162.435 82.671 166.726 99.5382 188.48C115.732 209.365 133.245 171.398 133.245 171.398Z" fill="white"/>
<path d="M216.868 128.203C216.868 128.203 182.383 122.301 160.125 158.121C137.866 193.942 127.834 210.558 127.834 210.558L182.18 227.608C182.18 227.608 220.16 190.886 219.22 190.415C218.279 189.944 238.266 149.348 216.887 126.53C195.508 103.711 216.868 128.203 216.868 128.203Z" fill="#5479F7"/>
<path d="M189.985 205.965L206.209 241.618H319.07L295.557 156.004C295.557 156.004 280.514 117.019 251.981 119.702C223.448 122.386 189.436 157.796 189.985 205.965Z" fill="#5479F7"/>
<path d="M182.181 227.608C182.181 227.608 164.906 248.021 143.98 242.025C123.054 236.03 106.747 204.08 106.747 204.08C106.747 204.08 95.1918 196.176 100.482 186.183C105.945 175.864 123.088 167.698 131.082 170.285C139.076 172.871 144.999 184.537 163.104 194.883C181.208 205.228 183.099 224.508 183.099 224.508L182.181 227.608Z" fill="#5479F7"/>
<path d="M221.16 91.7506C221.676 97.2192 219.973 102.772 217.057 107.5C214.141 112.228 210.056 116.19 205.611 119.606C201.246 122.958 196.278 125.901 190.772 126.454C187.21 126.805 183.287 125.955 181.02 123.275C178.951 120.831 178.648 117.436 178.426 114.27C178.392 113.822 178.364 113.366 178.337 112.917C178.219 111.101 178.132 109.285 178.037 107.471C177.798 102.706 177.566 97.9396 176.952 93.2089C175.82 84.513 175.571 79.3416 177.718 75.5269C181.222 69.154 189.892 66.979 197.229 67.6955C204.56 68.4211 211.145 72.7753 215.579 78.4944C218.566 82.3446 220.711 86.9152 221.16 91.7506Z" fill="white"/>
<path d="M177.514 92.0226C177.514 92.0226 173.76 98.6899 173.344 100.861C172.928 103.032 178.083 105.108 178.083 105.108L177.514 92.0226Z" fill="white"/>
<path d="M197.078 94.9798C197.078 94.9798 189.508 96.5032 182.618 85.8198C182.618 85.8198 175.47 88.9601 170.836 80.9928C166.202 73.0256 173.484 68.6823 173.484 68.6823C173.484 68.6823 175.885 52.3428 203.226 61.744C203.226 61.744 223.452 56.7955 229.888 72.8727C235.744 87.4999 226.579 105.534 226.579 105.534C226.579 105.534 217.949 117.061 205.707 102.834C205.707 102.834 201.814 101.111 197.078 94.9798Z" fill="#1B1533"/>
<path d="M203.94 97.8131C204.03 93.7259 201.739 90.3603 198.824 90.2958C195.908 90.2313 193.471 93.4924 193.38 97.5797C193.29 101.667 195.581 105.032 198.496 105.097C201.412 105.161 203.849 101.9 203.94 97.8131Z" fill="white"/>
<path d="M200.482 100.545C200.449 100.545 200.416 100.54 200.383 100.531C200.196 100.476 200.089 100.281 200.143 100.094C200.151 100.065 200.955 97.2486 200.102 95.4053C199.671 94.4727 199.033 93.8574 198.352 93.7177C197.907 93.626 197.472 93.7473 197.128 94.0567C196.984 94.1869 196.759 94.1748 196.629 94.0305C196.499 93.8856 196.511 93.6626 196.656 93.5325C197.17 93.069 197.821 92.8897 198.494 93.0269C199.41 93.2148 200.209 93.9543 200.742 95.1093C201.706 97.1945 200.857 100.166 200.82 100.291C200.775 100.445 200.635 100.545 200.482 100.545Z" fill="black"/>
<path d="M177.963 87.5036C178.307 87.058 178.77 86.7053 179.294 86.4655C180.124 86.0864 181.625 85.6585 183.5 86.2578C184.994 86.7354 185.153 88.0676 184.272 88.8974C182.773 90.3111 179.881 90.2247 178.722 89.7721C177.674 89.3632 177.227 88.4583 177.963 87.5036Z" fill="#1B1533"/>
<path d="M198.519 105.481C198.048 105.481 197.551 105.387 197.03 105.171C196.85 105.097 196.765 104.89 196.839 104.711C196.914 104.531 197.122 104.445 197.3 104.52C200.614 105.894 202.915 101.17 202.938 101.121C203.022 100.946 203.234 100.871 203.409 100.955C203.584 101.039 203.659 101.25 203.575 101.425C203.553 101.472 201.599 105.481 198.519 105.481Z" fill="black"/>
<path d="M184.169 88.3663C184.067 88.3663 183.964 88.3212 183.894 88.2347C183.788 88.1021 181.267 84.9452 179.86 81.128C179.792 80.9455 179.886 80.7426 180.068 80.6752C180.25 80.6083 180.453 80.7014 180.521 80.8843C181.888 84.59 184.419 87.7615 184.444 87.7929C184.566 87.9446 184.542 88.1669 184.39 88.2889C184.325 88.3408 184.247 88.3663 184.169 88.3663Z" fill="#8276B5"/>
<path d="M173.485 69.0346C173.388 69.0346 173.29 68.9944 173.221 68.9154C173.093 68.7693 173.106 68.5468 173.252 68.418C173.402 68.2847 177.025 65.1576 184.355 65.4586C184.55 65.4666 184.701 65.6311 184.693 65.8259C184.684 66.0202 184.504 66.172 184.326 66.1633C177.301 65.8705 173.754 68.9159 173.718 68.9466C173.651 69.0057 173.568 69.0346 173.485 69.0346Z" fill="#8276B5"/>
<path d="M199.24 90.7021C199.222 90.7021 199.203 90.7008 199.185 90.698C193.703 89.8338 191.068 83.3622 190.958 83.0873C190.887 82.9062 190.975 82.7012 191.156 82.6293C191.335 82.5563 191.542 82.6455 191.614 82.8263C191.639 82.8901 194.213 89.2001 199.295 90.0011C199.487 90.0318 199.619 90.2122 199.588 90.4045C199.561 90.5781 199.41 90.7021 199.24 90.7021Z" fill="#8276B5"/>
<path d="M196.288 64.6576C196.184 64.6576 196.081 64.6119 196.011 64.5236C195.891 64.3707 195.917 64.1489 196.07 64.028C198.625 62.0105 202.995 61.4184 203.179 61.3943C203.365 61.369 203.549 61.5037 203.576 61.698C203.6 61.891 203.465 62.0682 203.272 62.0935C203.228 62.0994 198.908 62.6856 196.507 64.5819C196.442 64.6328 196.365 64.6576 196.288 64.6576Z" fill="#8276B5"/>
<path d="M254.208 119.57L208.133 137.482C208.133 137.482 238.344 147.242 251.668 139.556C264.992 131.869 254.208 119.57 254.208 119.57Z" fill="#1B1533"/>
<path d="M191.16 131.915C212.02 141.578 242.772 142.539 251.49 132.128C260.208 121.718 249.245 111.802 249.245 111.802C242.943 94.6529 214.799 104.059 203.954 113.077C193.109 122.096 191.287 132.692 191.287 132.692L191.16 131.915Z" fill="#5479F7"/>
<path d="M220.611 122.815C219.061 122.815 218.211 122.734 218.187 122.732C217.992 122.712 217.851 122.539 217.871 122.345C217.89 122.152 218.066 122.012 218.257 122.03C218.328 122.036 225.554 122.717 236.666 119.992C247.584 117.315 248.887 111.785 248.899 111.729C248.939 111.54 249.127 111.417 249.317 111.457C249.507 111.497 249.629 111.682 249.59 111.873C249.54 112.117 248.23 117.883 236.834 120.677C229.386 122.503 223.653 122.815 220.611 122.815Z" fill="black"/>
<path d="M212.359 122.876C212.237 122.876 212.117 122.812 212.053 122.698C211.956 122.529 212.014 122.314 212.184 122.217C223.175 115.926 245.225 112.989 245.447 112.96C245.633 112.935 245.817 113.071 245.842 113.264C245.867 113.457 245.731 113.634 245.538 113.659C245.318 113.688 223.404 116.607 212.534 122.829C212.479 122.861 212.418 122.876 212.359 122.876Z" fill="black"/>
<path d="M127.533 205.903C127.508 205.903 127.483 205.902 127.459 205.9C127.117 205.88 126.646 205.719 126.335 205.066C124.591 201.4 133.329 194.751 133.703 194.47C133.857 194.353 134.078 194.383 134.197 194.539C134.314 194.695 134.283 194.916 134.127 195.033C131.715 196.853 125.729 202.148 126.972 204.763C127.148 205.133 127.358 205.188 127.5 205.196C129.166 205.299 133.223 199.89 135.388 196.461L145.2 181.549C145.308 181.385 145.528 181.34 145.688 181.448C145.851 181.555 145.896 181.774 145.789 181.937L135.981 196.842C135.394 197.772 130.186 205.903 127.533 205.903Z" fill="black"/>
<path d="M117.489 197.001C117.391 197.001 117.293 196.96 117.223 196.88C117.095 196.733 117.111 196.51 117.258 196.382C129.408 185.832 141.734 182.658 141.857 182.628C142.042 182.579 142.237 182.695 142.285 182.884C142.332 183.073 142.217 183.264 142.028 183.312C141.907 183.342 129.736 186.48 117.721 196.915C117.654 196.973 117.571 197.001 117.489 197.001Z" fill="black"/>
<path d="M125.993 160.202C125.876 160.202 125.761 160.143 125.694 160.036L122.206 154.472C122.103 154.307 122.153 154.089 122.318 153.985C122.484 153.882 122.701 153.932 122.804 154.097L126.292 159.661C126.395 159.826 126.345 160.044 126.18 160.148C126.122 160.184 126.057 160.202 125.993 160.202Z" fill="black"/>
<path d="M110.474 156.263C110.363 156.263 110.252 156.21 110.183 156.11L107.009 151.506C106.899 151.346 106.94 151.126 107.1 151.016C107.259 150.906 107.479 150.945 107.591 151.106L110.765 155.71C110.875 155.87 110.835 156.09 110.675 156.201C110.613 156.243 110.544 156.263 110.474 156.263Z" fill="black"/>
<path d="M102.833 162.082C102.707 162.082 102.585 162.015 102.522 161.896L100.098 157.352C100.006 157.181 100.072 156.967 100.244 156.875C100.414 156.784 100.629 156.848 100.721 157.02L103.145 161.564C103.237 161.735 103.171 161.949 102.999 162.041C102.946 162.069 102.89 162.082 102.833 162.082Z" fill="black"/>
<path d="M95.9608 167.726C95.8161 167.726 95.6805 167.636 95.6288 167.492L93.8586 162.555C93.7931 162.371 93.8882 162.169 94.0714 162.103C94.2552 162.038 94.4563 162.133 94.5226 162.316L96.2928 167.254C96.3583 167.437 96.2632 167.639 96.0801 167.705C96.0409 167.719 96.0002 167.726 95.9608 167.726Z" fill="black"/>
<path d="M139.619 158.974C139.556 158.974 139.495 158.959 139.438 158.925C139.271 158.825 139.216 158.609 139.315 158.441C139.368 158.352 140.655 156.264 144.497 156.074C148.179 155.894 157.413 156.682 157.804 156.715C157.998 156.732 158.142 156.902 158.125 157.097C158.108 157.291 157.94 157.437 157.744 157.418C157.648 157.41 148.166 156.597 144.532 156.779C141.063 156.95 139.933 158.784 139.922 158.802C139.856 158.913 139.738 158.974 139.619 158.974Z" fill="black"/>
<path d="M152.763 157.046C152.716 157.046 152.668 157.036 152.623 157.017L147.213 154.677L143.604 156.708C143.434 156.803 143.219 156.742 143.124 156.573C143.028 156.403 143.089 156.188 143.258 156.092L146.909 154.039C147.075 153.947 147.278 153.937 147.451 154.012L152.902 156.369C153.082 156.447 153.163 156.654 153.086 156.833C153.028 156.966 152.899 157.046 152.763 157.046Z" fill="black"/>
<path d="M161.693 146.035C161.667 146.035 161.642 146.033 161.616 146.027L151.741 143.813C151.55 143.77 151.431 143.582 151.473 143.392C151.517 143.202 151.704 143.083 151.895 143.125L161.77 145.339C161.96 145.381 162.079 145.57 162.037 145.76C162 145.924 161.855 146.035 161.693 146.035Z" fill="black"/>
<path d="M213.754 139.099C213.721 139.099 213.688 139.095 213.655 139.085L192.263 132.795C192.076 132.74 191.969 132.544 192.024 132.357C192.079 132.171 192.276 132.062 192.462 132.119L213.853 138.408C214.04 138.463 214.147 138.659 214.092 138.846C214.047 139 213.907 139.099 213.754 139.099Z" fill="black"/>
<path d="M194.386 215.986C194.304 215.986 194.221 215.958 194.154 215.9C194.008 215.773 193.992 215.55 194.119 215.403L207.728 199.725C208.27 199.099 209.145 198.93 209.902 199.301C210.63 199.659 211 200.394 210.843 201.174C210.585 202.455 207.869 206.029 204.36 208.495C204.202 208.607 203.981 208.568 203.868 208.409C203.757 208.249 203.795 208.029 203.955 207.918C207.432 205.473 209.943 202.072 210.151 201.035C210.263 200.481 209.935 200.103 209.591 199.934C209.231 199.759 208.668 199.719 208.26 200.187L194.652 215.865C194.582 215.946 194.484 215.986 194.386 215.986Z" fill="black"/>
<path d="M204.157 204.729C203.981 204.729 203.828 204.596 203.807 204.416C199.938 170.454 190.083 156.811 182.498 151.346C175.465 146.28 169.428 147.484 169.368 147.497C169.177 147.541 168.99 147.416 168.949 147.225C168.909 147.035 169.029 146.848 169.22 146.807C169.476 146.752 175.593 145.517 182.883 150.754C190.594 156.294 200.606 170.088 204.508 204.336C204.53 204.53 204.391 204.704 204.198 204.726C204.184 204.728 204.171 204.729 204.157 204.729Z" fill="black"/>
<path d="M258.545 180.947C258.423 180.947 258.305 180.884 258.239 180.77C245.56 158.822 223.054 145.391 222.828 145.257C222.66 145.158 222.604 144.942 222.703 144.775C222.802 144.606 223.019 144.552 223.186 144.65C223.414 144.784 246.079 158.31 258.85 180.418C258.948 180.586 258.89 180.802 258.721 180.9C258.665 180.932 258.605 180.947 258.545 180.947Z" fill="black"/>
<path d="M215.365 225.311C215.336 225.311 215.305 225.307 215.275 225.299C204.411 222.417 195.849 217.575 195.764 217.526C195.595 217.429 195.536 217.214 195.632 217.045C195.729 216.875 195.945 216.817 196.114 216.913C196.198 216.961 204.684 221.76 215.456 224.617C215.644 224.667 215.756 224.86 215.706 225.049C215.664 225.207 215.522 225.311 215.365 225.311Z" fill="black"/>
<path d="M319.069 241.618C319.069 241.618 325.458 226.358 335.136 200.713C345.902 172.183 352.688 151.568 341.402 143.785C330.116 136.002 278.456 131.472 259.817 149.268C232.073 175.759 219.689 241.618 219.689 241.618H319.069Z" fill="#FFF7EE"/>
<path d="M225.894 241.971C225.868 241.971 225.843 241.968 225.817 241.962C225.627 241.92 225.508 241.731 225.549 241.541C228.859 226.744 241.457 176.745 264.587 154.652C282.724 137.333 332.808 141.83 345.897 149.687C346.065 149.787 346.119 150.003 346.018 150.171C345.919 150.339 345.701 150.391 345.535 150.291C332.574 142.512 283.006 138.038 265.075 155.162C242.087 177.118 229.537 226.947 226.238 241.696C226.201 241.859 226.056 241.971 225.894 241.971Z" fill="black"/>
<path d="M12.7347 213.192L17.1044 235.655C17.3772 237.06 18.608 238.077 20.0378 238.077H109.268C111.151 238.077 112.562 236.359 112.205 234.513L101.076 177.274C100.799 175.867 99.5684 174.853 98.1385 174.853H8.90868C7.02557 174.853 5.61415 176.567 5.97161 178.413L10.5119 201.765L12.7347 213.192Z" fill="white"/>
<path d="M109.267 238.429H20.0364C18.4411 238.429 17.062 237.291 16.7569 235.723L5.62391 178.48C5.43369 177.496 5.69013 176.488 6.32723 175.716C6.96434 174.943 7.90476 174.5 8.90775 174.5H98.1378C99.7324 174.5 101.114 175.638 101.421 177.206L112.551 234.446C112.741 235.431 112.484 236.44 111.846 237.214C111.208 237.986 110.269 238.429 109.267 238.429ZM13.0799 213.124L17.45 235.588C17.6905 236.826 18.7781 237.724 20.0367 237.724H109.267C110.057 237.724 110.799 237.375 111.302 236.765C111.806 236.154 112.008 235.358 111.857 234.58L100.729 177.341C100.486 176.104 99.3964 175.206 98.1378 175.206H8.90752C8.11614 175.206 7.37345 175.555 6.87128 176.165C6.36842 176.774 6.16591 177.569 6.31677 178.346L13.0799 213.124Z" fill="black"/>
<path d="M96.1006 183.882C97.4164 182.566 97.4164 180.433 96.1006 179.117C94.7848 177.801 92.6514 177.801 91.3356 179.117C90.0198 180.433 90.0198 182.566 91.3356 183.882C92.6514 185.198 94.7848 185.198 96.1006 183.882Z" fill="#E0E0E0"/>
<path d="M55.8289 214.855C57.0148 214.855 57.9762 213.894 57.9762 212.708C57.9762 211.522 57.0148 210.561 55.8289 210.561C54.643 210.561 53.6816 211.522 53.6816 212.708C53.6816 213.894 54.643 214.855 55.8289 214.855Z" fill="#8276B5"/>
<path d="M62.3484 214.855C63.5344 214.855 64.4957 213.894 64.4957 212.708C64.4957 211.522 63.5344 210.561 62.3484 210.561C61.1625 210.561 60.2012 211.522 60.2012 212.708C60.2012 213.894 61.1625 214.855 62.3484 214.855Z" fill="#8276B5"/>
<path d="M68.8406 214.855C70.0266 214.855 70.9879 213.894 70.9879 212.708C70.9879 211.522 70.0266 210.561 68.8406 210.561C67.6547 210.561 66.6934 211.522 66.6934 212.708C66.6934 213.894 67.6547 214.855 68.8406 214.855Z" fill="#8276B5"/>
<path d="M49.1528 229.363H45.768C45.033 229.363 44.3993 228.84 44.2614 228.118L38.4537 197.875C38.3668 197.425 38.4847 196.963 38.7769 196.609C39.069 196.255 39.5002 196.052 39.9596 196.052H43.5938C44.1779 196.052 44.6519 196.526 44.6519 197.11C44.6519 197.695 44.1779 198.168 43.5938 198.168H40.6643L46.2494 227.247H49.1528C49.7369 227.247 50.2109 227.721 50.2109 228.305C50.2109 228.89 49.7369 229.363 49.1528 229.363Z" fill="#8276B5"/>
<path d="M82.8543 229.363H79.9832C79.3991 229.363 78.9252 228.89 78.9252 228.305C78.9252 227.721 79.3991 227.247 79.9832 227.247H82.4857L76.9329 197.707H73.601C73.0169 197.707 72.543 197.233 72.543 196.649C72.543 196.064 73.0169 195.591 73.601 195.591H77.1863C78.0564 195.591 78.8044 196.211 78.9657 197.066L84.6334 227.219C84.7327 227.751 84.592 228.294 84.2471 228.709C83.9021 229.125 83.3943 229.363 82.8543 229.363Z" fill="#8276B5"/>
<path d="M102.832 188.258H7.81557C7.62057 188.258 7.46289 188.101 7.46289 187.906C7.46289 187.711 7.62057 187.553 7.81557 187.553H102.832C103.027 187.553 103.185 187.711 103.185 187.906C103.185 188.101 103.027 188.258 102.832 188.258Z" fill="black"/>
</svg>
