<svg width="446" height="298" viewBox="0 0 446 298" fill="none" xmlns="http://www.w3.org/2000/svg">
<g clip-path="url(#clip0_3479_13759)">
<path d="M421.627 221.429H292.498C292.3 221.429 292.141 221.269 292.141 221.07C292.141 220.872 292.3 220.712 292.498 220.712H421.627C426.611 220.712 430.666 216.652 430.666 211.663V25.2241C430.666 20.2346 426.611 16.175 421.627 16.175H364.738C364.54 16.175 364.381 16.0154 364.381 15.8167C364.381 15.6181 364.54 15.4585 364.738 15.4585H421.627C427.006 15.4585 431.381 19.8389 431.381 25.2241V211.663C431.381 217.048 427.006 221.429 421.627 221.429Z" fill="white"/>
<path d="M109.739 221.429H52.354C46.975 221.429 42.5996 217.048 42.5996 211.663V25.2241C42.5996 19.8389 46.975 15.4585 52.354 15.4585H166.322C166.52 15.4585 166.679 15.6181 166.679 15.8167C166.679 16.0154 166.52 16.175 166.322 16.175H52.354C47.3703 16.175 43.3153 20.2346 43.3153 25.2241V211.663C43.3153 216.652 47.3703 220.712 52.354 220.712H109.737C109.936 220.712 110.095 220.872 110.095 221.07C110.095 221.269 109.936 221.429 109.737 221.429H109.739Z" fill="white"/>
<path d="M424.71 39.0933H364.739C364.54 39.0933 364.381 38.9337 364.381 38.7351C364.381 38.5364 364.54 38.3768 364.739 38.3768H424.71C424.908 38.3768 425.067 38.5364 425.067 38.7351C425.067 38.9337 424.908 39.0933 424.71 39.0933Z" fill="white"/>
<path d="M88.4446 39.0933H53.0981C52.8996 39.0933 52.7402 38.9337 52.7402 38.7351C52.7402 38.5364 52.8996 38.3768 53.0981 38.3768H88.4446C88.6431 38.3768 88.8025 38.5364 88.8025 38.7351C88.8025 38.9337 88.6431 39.0933 88.4446 39.0933Z" fill="white"/>
<path d="M421.147 31.4414C418.985 31.4414 417.227 29.6811 417.227 27.5169C417.227 25.3527 418.985 23.5924 421.147 23.5924C423.308 23.5924 425.067 25.3527 425.067 27.5169C425.067 29.6811 423.308 31.4414 421.147 31.4414ZM421.147 24.3089C419.38 24.3089 417.942 25.7484 417.942 27.5169C417.942 29.2853 419.38 30.7249 421.147 30.7249C422.913 30.7249 424.351 29.2853 424.351 27.5169C424.351 25.7484 422.913 24.3089 421.147 24.3089Z" fill="white"/>
<path d="M409.113 31.4414C406.952 31.4414 405.193 29.6811 405.193 27.5169C405.193 25.3527 406.952 23.5924 409.113 23.5924C411.275 23.5924 413.033 25.3527 413.033 27.5169C413.033 29.6811 411.275 31.4414 409.113 31.4414ZM409.113 24.3089C407.347 24.3089 405.909 25.7484 405.909 27.5169C405.909 29.2853 407.347 30.7249 409.113 30.7249C410.88 30.7249 412.318 29.2853 412.318 27.5169C412.318 25.7484 410.88 24.3089 409.113 24.3089Z" fill="white"/>
<path d="M397.08 31.4414C394.918 31.4414 393.16 29.6811 393.16 27.5169C393.16 25.3527 394.918 23.5924 397.08 23.5924C399.242 23.5924 401 25.3527 401 27.5169C401 29.6811 399.242 31.4414 397.08 31.4414ZM397.08 24.3089C395.314 24.3089 393.876 25.7484 393.876 27.5169C393.876 29.2853 395.314 30.7249 397.08 30.7249C398.847 30.7249 400.284 29.2853 400.284 27.5169C400.284 25.7484 398.847 24.3089 397.08 24.3089Z" fill="white"/>
<path d="M345.648 0.358276H193.676C186.489 0.358276 180.662 6.19154 180.662 13.3872V96.9282C180.662 104.124 186.489 109.957 193.676 109.957H345.648C352.835 109.957 358.662 104.124 358.662 96.9282V13.3872C358.662 6.19154 352.835 0.358276 345.648 0.358276Z" fill="white"/>
<path d="M345.648 110.315H193.677C186.303 110.315 180.305 104.31 180.305 96.9282V13.3872C180.305 6.0056 186.303 0 193.677 0H345.648C353.022 0 359.02 6.0056 359.02 13.3872V96.9282C359.02 104.31 353.022 110.315 345.648 110.315ZM193.677 0.716503C186.697 0.716503 181.02 6.4013 181.02 13.3872V96.9282C181.02 103.916 186.699 109.599 193.677 109.599H345.648C352.628 109.599 358.305 103.914 358.305 96.9282V13.3872C358.305 6.39967 352.626 0.716503 345.648 0.716503H193.677Z" fill="#E2EAFF"/>
<path d="M205.359 23.6397H235.561C237.109 23.6397 238.365 22.3825 238.365 20.8323C238.365 19.282 237.109 18.0249 235.561 18.0249H205.359C203.81 18.0249 202.555 19.282 202.555 20.8323C202.555 22.3825 203.81 23.6397 205.359 23.6397Z" fill="white"/>
<path d="M235.559 23.9979H205.359C203.616 23.9979 202.197 22.5779 202.197 20.8323C202.197 19.0866 203.616 17.6666 205.359 17.6666H235.559C237.303 17.6666 238.721 19.0866 238.721 20.8323C238.721 22.5779 237.303 23.9979 235.559 23.9979ZM205.359 18.3831C204.011 18.3831 202.913 19.4823 202.913 20.8323C202.913 22.1822 204.011 23.2814 205.359 23.2814H235.559C236.908 23.2814 238.006 22.1822 238.006 20.8323C238.006 19.4823 236.908 18.3831 235.559 18.3831H205.359Z" fill="black"/>
<path d="M213.054 35.6167H228.409C229.957 35.6167 231.213 34.3596 231.213 32.8093C231.213 31.2591 229.957 30.002 228.409 30.002H213.054C211.506 30.002 210.25 31.2591 210.25 32.8093C210.25 34.3596 211.506 35.6167 213.054 35.6167Z" fill="white"/>
<path d="M228.409 35.975H213.055C211.311 35.975 209.893 34.555 209.893 32.8093C209.893 31.0637 211.311 29.6437 213.055 29.6437H228.409C230.153 29.6437 231.571 31.0637 231.571 32.8093C231.571 34.555 230.153 35.975 228.409 35.975ZM213.055 30.3602C211.706 30.3602 210.608 31.4594 210.608 32.8093C210.608 34.1593 211.706 35.2585 213.055 35.2585H228.409C229.758 35.2585 230.856 34.1593 230.856 32.8093C230.856 31.4594 229.758 30.3602 228.409 30.3602H213.055Z" fill="black"/>
<path d="M205.361 47.5937H228.411C229.959 47.5937 231.215 46.3365 231.215 44.7863C231.215 43.236 229.959 41.9789 228.411 41.9789H205.361C203.812 41.9789 202.557 43.236 202.557 44.7863C202.557 46.3365 203.812 47.5937 205.361 47.5937Z" fill="white"/>
<path d="M228.409 47.9519H205.359C203.616 47.9519 202.197 46.5319 202.197 44.7862C202.197 43.0406 203.616 41.6206 205.359 41.6206H228.409C230.153 41.6206 231.571 43.0406 231.571 44.7862C231.571 46.5319 230.153 47.9519 228.409 47.9519ZM205.359 42.3371C204.011 42.3371 202.913 43.4363 202.913 44.7862C202.913 46.1362 204.011 47.2354 205.359 47.2354H228.409C229.758 47.2354 230.855 46.1362 230.855 44.7862C230.855 43.4363 229.758 42.3371 228.409 42.3371H205.359Z" fill="black"/>
<path d="M214.085 59.5723H228.41C229.959 59.5723 231.215 58.3152 231.215 56.7649C231.215 55.2147 229.959 53.9575 228.41 53.9575H214.085C212.537 53.9575 211.281 55.2147 211.281 56.7649C211.281 58.3152 212.537 59.5723 214.085 59.5723Z" fill="white"/>
<path d="M228.409 59.9305H214.084C212.34 59.9305 210.922 58.5105 210.922 56.7649C210.922 55.0192 212.34 53.5992 214.084 53.5992H228.409C230.153 53.5992 231.571 55.0192 231.571 56.7649C231.571 58.5105 230.153 59.9305 228.409 59.9305ZM214.084 54.3157C212.735 54.3157 211.638 55.4149 211.638 56.7649C211.638 58.1148 212.735 59.214 214.084 59.214H228.409C229.757 59.214 230.855 58.1148 230.855 56.7649C230.855 55.4149 229.757 54.3157 228.409 54.3157H214.084Z" fill="black"/>
<path d="M211.185 78.7355H228.41C229.959 78.7355 231.214 77.4784 231.214 75.9281C231.214 74.3779 229.959 73.1207 228.41 73.1207H211.185C209.637 73.1207 208.381 74.3779 208.381 75.9281C208.381 77.4784 209.637 78.7355 211.185 78.7355Z" fill="white"/>
<path d="M228.409 79.0937H211.183C209.44 79.0937 208.021 77.6738 208.021 75.9281C208.021 74.1824 209.44 72.7625 211.183 72.7625H228.409C230.152 72.7625 231.571 74.1824 231.571 75.9281C231.571 77.6738 230.152 79.0937 228.409 79.0937ZM211.183 73.479C209.835 73.479 208.737 74.5781 208.737 75.9281C208.737 77.278 209.835 78.3772 211.183 78.3772H228.409C229.757 78.3772 230.855 77.278 230.855 75.9281C230.855 74.5781 229.757 73.479 228.409 73.479H211.183Z" fill="black"/>
<path d="M211.185 90.7141H228.41C229.959 90.7141 231.214 89.457 231.214 87.9068C231.214 86.3565 229.959 85.0994 228.41 85.0994H211.185C209.637 85.0994 208.381 86.3565 208.381 87.9068C208.381 89.457 209.637 90.7141 211.185 90.7141Z" fill="white"/>
<path d="M228.409 91.0724H211.183C209.44 91.0724 208.021 89.6524 208.021 87.9067C208.021 86.1611 209.44 84.7411 211.183 84.7411H228.409C230.152 84.7411 231.571 86.1611 231.571 87.9067C231.571 89.6524 230.152 91.0724 228.409 91.0724ZM211.183 85.4576C209.835 85.4576 208.737 86.5568 208.737 87.9067C208.737 89.2567 209.835 90.3559 211.183 90.3559H228.409C229.757 90.3559 230.855 89.2567 230.855 87.9067C230.855 86.5568 229.757 85.4576 228.409 85.4576H211.183Z" fill="black"/>
<path d="M245.884 23.6397H268.934C270.483 23.6397 271.738 22.3825 271.738 20.8323C271.738 19.282 270.483 18.0249 268.934 18.0249H245.884C244.336 18.0249 243.08 19.282 243.08 20.8323C243.08 22.3825 244.336 23.6397 245.884 23.6397Z" fill="#E2EAFF"/>
<path d="M238.732 35.6167H261.782C263.33 35.6167 264.586 34.3596 264.586 32.8093C264.586 31.2591 263.33 30.002 261.782 30.002H238.732C237.183 30.002 235.928 31.2591 235.928 32.8093C235.928 34.3596 237.183 35.6167 238.732 35.6167Z" fill="#E2EAFF"/>
<path d="M238.732 47.5937H295.155C296.704 47.5937 297.959 46.3365 297.959 44.7863C297.959 43.236 296.704 41.9789 295.155 41.9789H238.732C237.183 41.9789 235.928 43.236 235.928 44.7863C235.928 46.3365 237.183 47.5937 238.732 47.5937Z" fill="#E2EAFF"/>
<path d="M238.732 59.5723H261.782C263.33 59.5723 264.586 58.3152 264.586 56.7649C264.586 55.2147 263.33 53.9575 261.782 53.9575H238.732C237.183 53.9575 235.928 55.2147 235.928 56.7649C235.928 58.3152 237.183 59.5723 238.732 59.5723Z" fill="#E2EAFF"/>
<path d="M238.732 78.7355H252.247C253.795 78.7355 255.051 77.4784 255.051 75.9281C255.051 74.3779 253.795 73.1207 252.247 73.1207H238.732C237.183 73.1207 235.928 74.3779 235.928 75.9281C235.928 77.4784 237.183 78.7355 238.732 78.7355Z" fill="#E2EAFF"/>
<path d="M238.732 90.7141H261.782C263.33 90.7141 264.586 89.457 264.586 87.9068C264.586 86.3565 263.33 85.0994 261.782 85.0994H238.732C237.183 85.0994 235.928 86.3565 235.928 87.9068C235.928 89.457 237.183 90.7141 238.732 90.7141Z" fill="#E2EAFF"/>
<path d="M279.257 23.6397H302.307C303.856 23.6397 305.111 22.3825 305.111 20.8323C305.111 19.282 303.856 18.0249 302.307 18.0249H279.257C277.709 18.0249 276.453 19.282 276.453 20.8323C276.453 22.3825 277.709 23.6397 279.257 23.6397Z" fill="white"/>
<path d="M302.308 23.9979H279.258C277.514 23.9979 276.096 22.5779 276.096 20.8323C276.096 19.0866 277.514 17.6666 279.258 17.6666H302.308C304.051 17.6666 305.47 19.0866 305.47 20.8323C305.47 22.5779 304.051 23.9979 302.308 23.9979ZM279.258 18.3831C277.909 18.3831 276.811 19.4823 276.811 20.8323C276.811 22.1822 277.909 23.2814 279.258 23.2814H302.308C303.656 23.2814 304.754 22.1822 304.754 20.8323C304.754 19.4823 303.656 18.3831 302.308 18.3831H279.258Z" fill="black"/>
<path d="M272.105 35.6167H286.89C288.439 35.6167 289.694 34.3596 289.694 32.8093C289.694 31.2591 288.439 30.002 286.89 30.002H272.105C270.556 30.002 269.301 31.2591 269.301 32.8093C269.301 34.3596 270.556 35.6167 272.105 35.6167Z" fill="white"/>
<path d="M286.891 35.975H272.105C270.362 35.975 268.943 34.555 268.943 32.8093C268.943 31.0637 270.362 29.6437 272.105 29.6437H286.891C288.634 29.6437 290.053 31.0637 290.053 32.8093C290.053 34.555 288.634 35.975 286.891 35.975ZM272.105 30.3602C270.757 30.3602 269.659 31.4594 269.659 32.8093C269.659 34.1593 270.757 35.2585 272.105 35.2585H286.891C288.239 35.2585 289.337 34.1593 289.337 32.8093C289.337 31.4594 288.239 30.3602 286.891 30.3602H272.105Z" fill="black"/>
<path d="M305.478 47.5937H337.043C338.591 47.5937 339.847 46.3365 339.847 44.7863C339.847 43.236 338.591 41.9789 337.043 41.9789H305.478C303.93 41.9789 302.674 43.236 302.674 44.7863C302.674 46.3365 303.93 47.5937 305.478 47.5937Z" fill="white"/>
<path d="M337.045 47.9519H305.48C303.737 47.9519 302.318 46.5319 302.318 44.7862C302.318 43.0406 303.737 41.6206 305.48 41.6206H337.045C338.789 41.6206 340.207 43.0406 340.207 44.7862C340.207 46.5319 338.789 47.9519 337.045 47.9519ZM305.48 42.3371C304.132 42.3371 303.034 43.4363 303.034 44.7862C303.034 46.1362 304.132 47.2354 305.48 47.2354H337.045C338.394 47.2354 339.492 46.1362 339.492 44.7862C339.492 43.4363 338.394 42.3371 337.045 42.3371H305.48Z" fill="black"/>
<path d="M272.105 59.5723H305.101C306.65 59.5723 307.905 58.3152 307.905 56.7649C307.905 55.2147 306.65 53.9575 305.101 53.9575H272.105C270.556 53.9575 269.301 55.2147 269.301 56.7649C269.301 58.3152 270.556 59.5723 272.105 59.5723Z" fill="white"/>
<path d="M305.104 59.9305H272.107C270.364 59.9305 268.945 58.5105 268.945 56.7649C268.945 55.0192 270.364 53.5992 272.107 53.5992H305.104C306.847 53.5992 308.266 55.0192 308.266 56.7649C308.266 58.5105 306.847 59.9305 305.104 59.9305ZM272.107 54.3157C270.759 54.3157 269.661 55.4149 269.661 56.7649C269.661 58.1148 270.759 59.214 272.107 59.214H305.104C306.452 59.214 307.55 58.1148 307.55 56.7649C307.55 55.4149 306.452 54.3157 305.104 54.3157H272.107Z" fill="black"/>
<path d="M262.57 78.7355H295.154C296.703 78.7355 297.959 77.4784 297.959 75.9281C297.959 74.3779 296.703 73.1207 295.154 73.1207H262.57C261.021 73.1207 259.766 74.3779 259.766 75.9281C259.766 77.4784 261.021 78.7355 262.57 78.7355Z" fill="white"/>
<path d="M295.155 79.0937H262.57C260.827 79.0937 259.408 77.6738 259.408 75.9281C259.408 74.1824 260.827 72.7625 262.57 72.7625H295.155C296.899 72.7625 298.317 74.1824 298.317 75.9281C298.317 77.6738 296.899 79.0937 295.155 79.0937ZM262.57 73.479C261.222 73.479 260.124 74.5781 260.124 75.9281C260.124 77.278 261.222 78.3772 262.57 78.3772H295.155C296.503 78.3772 297.601 77.278 297.601 75.9281C297.601 74.5781 296.503 73.479 295.155 73.479H262.57Z" fill="black"/>
<path d="M272.105 90.7141H321.376C322.925 90.7141 324.181 89.457 324.181 87.9068C324.181 86.3565 322.925 85.0994 321.376 85.0994H272.105C270.556 85.0994 269.301 86.3565 269.301 87.9068C269.301 89.457 270.556 90.7141 272.105 90.7141Z" fill="#5479F7"/>
<path d="M445.642 116.044H287.924V211.831H445.642V116.044Z" fill="white"/>
<path d="M445.643 212.189H287.924C287.726 212.189 287.566 212.029 287.566 211.831V116.044C287.566 115.847 287.726 115.686 287.924 115.686H445.643C445.841 115.686 446.001 115.845 446.001 116.044V211.831C446.001 212.028 445.841 212.189 445.643 212.189ZM288.282 211.473H445.285V116.402H288.282V211.473Z" fill="black"/>
<path d="M319.68 202.35H300.838L310.259 167.242L319.68 202.35Z" fill="#E2EAFF"/>
<path d="M338.522 202.35H319.68L329.101 141.07L338.522 202.35Z" fill="#E2EAFF"/>
<path d="M357.363 202.35H338.521L347.942 138.363L357.363 202.35Z" fill="#E2EAFF"/>
<path d="M376.204 202.35H357.363L366.783 123.765L376.204 202.35Z" fill="#E2EAFF"/>
<path d="M395.045 202.35H376.203L385.624 180.202L395.045 202.35Z" fill="#E2EAFF"/>
<path d="M413.889 202.35H395.047L404.468 143.512L413.889 202.35Z" fill="#E2EAFF"/>
<path d="M432.729 202.35H413.889L423.31 158.056L432.729 202.35Z" fill="#E2EAFF"/>
<path d="M156.316 202.521L140.495 256.803L26.7256 245.936L29.5314 212.753L7.10938 212.332L27.8723 159.306C34.6826 141.915 49.7315 129.091 67.97 125.144C92.8838 119.751 127.877 112.18 148.619 107.707C157.564 105.779 166.837 108.956 172.725 115.966C183.91 129.287 201.58 150.34 210.905 165.779L160.796 208.797L156.316 202.52V202.521Z" fill="#5479F7"/>
<path d="M66.3251 213.827C66.2811 213.827 66.2356 213.819 66.1917 213.801C66.0079 213.728 65.9184 213.52 65.9932 213.336L75.5167 189.567C75.5899 189.383 75.7981 189.295 75.9819 189.369C76.1657 189.442 76.2552 189.65 76.1803 189.834L66.6569 213.603C66.6016 213.743 66.4666 213.827 66.3251 213.827Z" fill="black"/>
<path d="M274.308 137.932C276.494 127.23 267.766 129.632 267.766 129.632C269.267 120.851 260.686 120.112 260.686 120.112C269.874 109.166 272.368 98.2424 266.771 98.8449C262.451 99.3106 243.021 119.842 234.373 129.194C231.636 132.154 229.334 135.487 227.538 139.099L210.451 173.451L206.793 169.313L163.02 206.892C173.433 221.409 186.027 231.346 197.089 237.978C212.171 247.021 231.715 241.429 239.819 225.811C254.694 197.139 269.147 154.302 269.147 154.302C271.904 154.302 275.087 149.143 275.087 149.143C280.507 139.2 274.308 137.937 274.308 137.937V137.932Z" fill="white"/>
<path d="M212.657 242.686C207.17 242.686 201.768 241.199 196.907 238.283C183.159 230.04 171.661 219.548 162.731 207.099C162.616 206.938 162.653 206.714 162.813 206.599C162.972 206.483 163.196 206.521 163.312 206.68C172.185 219.05 183.611 229.476 197.274 237.667C204.465 241.979 212.866 243.093 220.932 240.807C229.025 238.512 235.62 233.126 239.503 225.643C254.194 197.325 268.664 154.613 268.808 154.185C268.872 153.998 269.075 153.897 269.262 153.96C269.449 154.024 269.55 154.227 269.487 154.415C269.342 154.843 254.854 197.607 240.137 225.974C236.162 233.634 229.412 239.148 221.128 241.497C218.323 242.292 215.479 242.686 212.657 242.686Z" fill="black"/>
<path d="M210.451 173.807C210.35 173.807 210.25 173.763 210.182 173.687L206.526 169.549C206.394 169.401 206.409 169.175 206.557 169.044C206.705 168.914 206.931 168.927 207.062 169.075L210.368 172.816L227.217 138.94C229.027 135.299 231.347 131.939 234.11 128.951C244.447 117.774 262.429 98.954 266.731 98.4899C268.431 98.3059 269.244 99.1234 269.626 99.8415C271.446 103.261 267.83 111.973 261.368 119.851C262.568 120.076 265.148 120.794 266.814 122.952C268.065 124.572 268.53 126.665 268.2 129.173C269.276 128.982 271.76 128.762 273.434 130.33C274.943 131.744 275.376 134.216 274.724 137.681C275.314 137.888 276.519 138.474 277.196 139.93C278.209 142.114 277.606 145.269 275.404 149.311C275.309 149.485 275.091 149.549 274.917 149.454C274.743 149.36 274.68 149.142 274.774 148.969C276.828 145.199 277.443 142.184 276.552 140.246C275.81 138.635 274.301 138.298 274.237 138.285C274.045 138.244 273.92 138.056 273.959 137.863C274.647 134.491 274.307 132.135 272.947 130.86C271.096 129.122 267.894 129.972 267.863 129.98C267.746 130.013 267.619 129.982 267.528 129.9C267.437 129.819 267.394 129.695 267.416 129.575C267.848 127.041 267.458 124.963 266.251 123.397C264.265 120.817 260.691 120.474 260.656 120.472C260.522 120.46 260.407 120.376 260.356 120.252C260.306 120.128 260.327 119.987 260.413 119.884C267.622 111.296 270.482 102.97 268.997 100.18C268.592 99.4197 267.856 99.0924 266.811 99.2048C263.879 99.5207 251.853 110.824 234.637 129.44C231.921 132.377 229.641 135.681 227.861 139.261L210.774 173.612C210.721 173.719 210.618 173.791 210.501 173.807C210.485 173.809 210.47 173.811 210.454 173.811L210.451 173.807Z" fill="black"/>
<path d="M202.23 192.489C202.183 192.489 202.135 192.479 202.091 192.461C201.909 192.384 201.825 192.174 201.901 191.992L209.348 174.327C209.424 174.144 209.634 174.058 209.816 174.136C209.998 174.213 210.083 174.423 210.006 174.605L202.56 192.27C202.503 192.407 202.37 192.49 202.23 192.49V192.489Z" fill="black"/>
<path d="M247.409 136.601C246.237 136.601 245.066 136.525 243.9 136.372C243.705 136.346 243.567 136.167 243.593 135.97C243.619 135.774 243.794 135.636 243.994 135.662C248.541 136.261 253.184 135.652 257.425 133.901C259.046 133.232 261.799 131.739 262.02 129.264C262.165 127.642 261.044 125.878 259.297 124.976C257.578 124.089 255.558 124.004 253.804 124.038C248.261 124.146 242.705 125.505 237.734 127.966C237.555 128.054 237.342 127.981 237.254 127.803C237.166 127.626 237.239 127.411 237.417 127.323C242.48 124.815 248.142 123.431 253.789 123.32C255.631 123.284 257.763 123.377 259.624 124.338C261.314 125.211 262.929 127.091 262.731 129.326C262.477 132.179 259.468 133.831 257.696 134.563C254.429 135.911 250.927 136.601 247.409 136.601Z" fill="black"/>
<path d="M251.73 148.932C250.65 148.932 249.679 148.51 249.102 147.777C248.385 146.87 248.363 145.634 248.409 144.784C248.586 141.467 249.909 138.282 252.134 135.816C252.266 135.67 252.493 135.659 252.64 135.79C252.786 135.922 252.797 136.149 252.666 136.297C250.551 138.642 249.294 141.669 249.125 144.823C249.086 145.558 249.097 146.618 249.663 147.334C250.133 147.93 251.005 148.264 251.937 148.21C252.858 148.157 253.762 147.763 254.523 147.386C260.961 144.203 265.837 137.845 267.251 130.798C267.29 130.604 267.479 130.479 267.672 130.518C267.866 130.557 267.991 130.746 267.952 130.939C266.498 138.202 261.473 144.75 254.84 148.03C254.014 148.438 253.028 148.865 251.979 148.927C251.896 148.932 251.813 148.935 251.732 148.935L251.73 148.932Z" fill="black"/>
<path d="M260.39 151.723C260.077 151.723 259.771 151.698 259.469 151.651C258.252 151.457 257.096 150.741 256.374 149.733C255.791 148.92 255.555 147.982 255.707 147.095C255.739 146.899 255.923 146.767 256.12 146.802C256.315 146.836 256.445 147.02 256.413 147.215C256.26 148.111 256.624 148.852 256.956 149.316C257.559 150.159 258.566 150.783 259.583 150.944C261.17 151.197 262.94 150.692 264.994 149.402C268.966 146.909 272.006 143.094 273.553 138.663C273.618 138.476 273.823 138.378 274.009 138.443C274.196 138.508 274.293 138.712 274.228 138.899C272.628 143.483 269.484 147.429 265.373 150.008C263.542 151.158 261.902 151.723 260.39 151.723Z" fill="black"/>
<path d="M265.579 155.473C264.647 155.473 263.86 155.268 263.227 154.859C262.216 154.206 261.524 152.755 262.172 151.553C262.266 151.379 262.482 151.314 262.656 151.408C262.83 151.503 262.895 151.72 262.801 151.894C262.362 152.71 262.868 153.775 263.614 154.258C264.327 154.719 265.311 154.862 266.542 154.685C269.846 154.209 273.457 151.706 274.763 148.985C274.849 148.808 275.062 148.733 275.241 148.818C275.418 148.904 275.495 149.117 275.408 149.296C274.01 152.21 270.16 154.888 266.645 155.395C266.27 155.449 265.916 155.476 265.579 155.476V155.473Z" fill="black"/>
<path d="M160.793 269.452H27.0758C12.0708 270.05 -2.99915 252.558 0.829751 235.814C2.00412 231.279 2.8792 227.643 3.45826 225.182C4.49437 220.771 5.26535 217.201 7.10661 212.334C7.36685 211.645 7.59295 211.079 7.74584 210.699C12.7101 210.58 18.1379 210.777 23.9625 211.256C33.2778 212.021 54.963 213.95 64.623 217.848L59.6604 232.334L114 233.126C125.911 233.126 136.069 240.683 145.463 248.018C151.834 252.992 157.85 259.944 160.793 269.451V269.452Z" fill="white"/>
<path d="M160.793 270L28.8506 269.811C20.02 269.811 11.7995 265.845 6.29521 258.931C0.790967 252.017 -1.23409 243.11 0.73729 234.49L1.06423 233.196C2.68752 226.76 4.91102 217.949 7.4094 210.584C7.47283 210.396 7.67615 210.297 7.86321 210.36C8.05026 210.424 8.15111 210.628 8.08767 210.815C5.59905 218.152 3.37881 226.949 1.75876 233.372L1.43345 234.658C-0.487502 243.054 1.48876 251.742 6.85637 258.483C12.2224 265.227 20.2396 269.093 28.8522 269.093L160.284 269.281C157.991 263.027 153.386 254.324 144.355 247.431L142.997 246.394C142.839 246.274 142.81 246.049 142.929 245.892C143.049 245.735 143.273 245.705 143.43 245.824L144.789 246.861C154.194 254.038 158.867 263.144 161.131 269.519C161.17 269.628 161.154 269.75 161.086 269.846C161.019 269.941 160.91 269.998 160.793 269.998V270Z" fill="black"/>
<path d="M145.854 264.689C145.713 264.689 145.579 264.605 145.522 264.466C142.786 257.738 137.581 252.69 130.469 249.866C130.285 249.793 130.195 249.584 130.267 249.4C130.34 249.216 130.55 249.127 130.73 249.2C138.03 252.098 143.374 257.283 146.183 264.196C146.257 264.38 146.17 264.588 145.986 264.663C145.942 264.681 145.896 264.689 145.851 264.689H145.854Z" fill="black"/>
<path d="M129.726 264.689C129.59 264.689 129.458 264.609 129.399 264.478C126.872 258.799 121.847 254.227 115.959 252.25C115.772 252.186 115.671 251.984 115.733 251.797C115.796 251.61 116 251.509 116.187 251.571C122.26 253.611 127.444 258.327 130.053 264.186C130.134 264.367 130.053 264.578 129.873 264.66C129.825 264.681 129.775 264.691 129.728 264.691L129.726 264.689Z" fill="black"/>
<path d="M269.103 270.216H108.925C106.714 270.216 104.922 268.422 104.922 266.208V265.266C104.922 260.911 108.448 257.381 112.798 257.381H280.646L279.298 262.393C278.057 267.008 273.877 270.216 269.103 270.216Z" fill="#C9C9C9"/>
<path d="M273.784 264.404H174.732C170.502 264.404 167.395 260.429 168.413 256.318L187.133 180.71C187.854 177.802 190.46 175.76 193.452 175.76H292.504C296.735 175.76 299.842 179.735 298.824 183.847L280.104 259.454C279.383 262.362 276.777 264.404 273.784 264.404Z" fill="#C9C9C9"/>
<path d="M243.431 204.936C243.431 206.745 241.967 208.211 240.16 208.211C238.353 208.211 236.889 206.745 236.889 204.936C236.889 203.127 238.353 201.661 240.16 201.661C241.967 201.661 243.431 203.127 243.431 204.936Z" fill="#E2EAFF"/>
<path d="M106.186 86.9671L91.9457 119.574L80.498 122.432C80.498 122.432 104.499 137.972 117.72 134.558C130.635 131.221 133.828 118.998 131.804 111.338L122.888 113.02L126.617 100.081C126.617 100.081 120.192 78.9276 106.186 86.9671Z" fill="white"/>
<path d="M80.4957 122.792C80.3346 122.792 80.1899 122.683 80.1492 122.52C80.102 122.328 80.2175 122.134 80.4095 122.086L91.6863 119.27L105.857 86.8239C105.888 86.7538 105.94 86.6952 106.006 86.6561C109.504 84.6483 112.853 84.2558 115.956 85.4885C123.376 88.4344 126.813 99.5076 126.956 99.9766C126.976 100.043 126.978 100.113 126.956 100.18L123.388 112.561L131.734 110.986C131.929 110.95 132.116 111.077 132.152 111.271C132.189 111.465 132.061 111.652 131.867 111.69L122.95 113.372C122.828 113.395 122.703 113.352 122.618 113.261C122.535 113.17 122.505 113.04 122.539 112.921L126.239 100.086C125.878 98.9686 122.428 88.8268 115.689 86.1529C112.828 85.0179 109.725 85.3762 106.462 87.2196L92.2686 119.718C92.2247 119.819 92.1353 119.895 92.0279 119.921L80.5802 122.779C80.551 122.787 80.5217 122.791 80.494 122.791L80.4957 122.792Z" fill="black"/>
<path d="M119.604 122.792C119.567 122.792 119.529 122.786 119.492 122.774C119.305 122.712 119.202 122.511 119.264 122.323L121.875 114.344C121.937 114.157 122.137 114.053 122.327 114.114C122.514 114.176 122.616 114.378 122.555 114.565L119.944 122.545C119.895 122.696 119.755 122.792 119.604 122.792Z" fill="black"/>
<path d="M101.954 77.0485C101.954 77.0485 90.4205 60.3735 92.496 56.537C94.5715 52.7021 98.9859 54.2784 98.9859 54.2784C98.9859 54.2784 116.099 23.4997 124.664 35.6851C124.664 35.6851 129.866 26.4292 137.426 31.2542C144.986 36.0792 142.882 42.0767 138.036 46.0712C138.036 46.0712 142.916 55.13 138.698 59.7157C134.481 64.3029 139.303 75.2214 142.555 76.5111C142.555 76.5111 152.283 97.8499 142.83 103.903C133.376 109.957 114.791 110.99 109.737 87.3792L101.953 77.0453L101.954 77.0485Z" fill="#F6B56B"/>
<path d="M107.884 78.4409L109.74 87.3825C109.74 87.3825 100.524 90.0792 96.89 82.8099C93.5555 76.1416 99.5022 69.9699 105.81 75.0277C106.879 75.8843 107.607 77.0991 107.885 78.4409H107.884Z" fill="white"/>
<path d="M107.114 84.6597C106.992 84.6597 106.875 84.5978 106.806 84.4854C105.645 82.5525 103.439 81.2954 101.187 81.2791C100.988 81.2791 100.83 81.1162 100.832 80.9192C100.832 80.7222 100.993 80.5642 101.19 80.5642H101.193C103.69 80.5821 106.133 81.976 107.42 84.1174C107.522 84.2868 107.467 84.5066 107.298 84.6092C107.241 84.6434 107.176 84.6597 107.114 84.6597Z" fill="black"/>
<path d="M138.724 56.4653C138.724 56.4653 125.331 58.1507 120.17 61.7658C117.477 63.6532 116.276 67.0403 117.181 70.2043C118.088 73.3862 119.305 77.2667 120.548 80.123C121.397 82.0738 123.467 83.1876 125.561 82.8212C129.85 82.0705 137.431 80.289 142.556 76.5128L138.724 56.4653Z" fill="white"/>
<path d="M404.467 248.884H292.497C292.298 248.884 292.139 248.724 292.139 248.526C292.139 248.327 292.298 248.167 292.497 248.167H404.109V231.606C404.109 231.409 404.268 231.248 404.467 231.248C404.665 231.248 404.824 231.408 404.824 231.606V248.526C404.824 248.723 404.665 248.884 404.467 248.884Z" fill="#5479F7"/>
<path d="M404.467 110.315C404.269 110.315 404.109 110.156 404.109 109.957V69.0773H364.739C364.54 69.0773 364.381 68.9178 364.381 68.7191C364.381 68.5204 364.54 68.3608 364.739 68.3608H404.467C404.666 68.3608 404.825 68.5204 404.825 68.7191V109.957C404.825 110.154 404.666 110.315 404.467 110.315Z" fill="#5479F7"/>
<path d="M357.361 268.703H283.924C283.726 268.703 283.566 268.544 283.566 268.345C283.566 268.146 283.726 267.987 283.924 267.987H357.361C357.56 267.987 357.719 268.146 357.719 268.345C357.719 268.544 357.56 268.703 357.361 268.703Z" fill="#5479F7"/>
<path d="M416.622 291.306H296.235C296.14 291.306 296.049 291.268 295.981 291.201L277.833 273.033C277.694 272.893 277.694 272.667 277.833 272.527C277.973 272.387 278.199 272.387 278.339 272.527L296.383 290.591H416.622C416.82 290.591 416.98 290.75 416.98 290.949C416.98 291.148 416.82 291.307 416.622 291.307V291.306Z" fill="#5479F7"/>
<path d="M416.622 297.642C420.315 297.642 423.309 294.644 423.309 290.947C423.309 287.25 420.315 284.253 416.622 284.253C412.929 284.253 409.936 287.25 409.936 290.947C409.936 294.644 412.929 297.642 416.622 297.642Z" fill="white"/>
<path d="M416.623 298C412.738 298 409.578 294.836 409.578 290.947C409.578 287.059 412.738 283.895 416.623 283.895C420.507 283.895 423.667 287.059 423.667 290.947C423.667 294.836 420.507 298 416.623 298ZM416.623 284.611C413.134 284.611 410.294 287.453 410.294 290.947C410.294 294.442 413.132 297.283 416.623 297.283C420.113 297.283 422.952 294.442 422.952 290.947C422.952 287.453 420.113 284.611 416.623 284.611Z" fill="#5479F7"/>
<path d="M359.923 274.529C363.334 273.114 364.955 269.198 363.541 265.782C362.128 262.366 358.217 260.744 354.805 262.159C351.393 263.574 349.773 267.49 351.186 270.906C352.599 274.322 356.511 275.944 359.923 274.529Z" fill="white"/>
<path d="M357.363 275.398C353.479 275.398 350.318 272.234 350.318 268.345C350.318 264.456 353.479 261.292 357.363 261.292C361.247 261.292 364.408 264.456 364.408 268.345C364.408 272.234 361.247 275.398 357.363 275.398ZM357.363 262.009C353.874 262.009 351.034 264.85 351.034 268.345C351.034 271.839 353.872 274.681 357.363 274.681C360.854 274.681 363.692 271.839 363.692 268.345C363.692 264.85 360.854 262.009 357.363 262.009Z" fill="#5479F7"/>
</g>
<defs>
<clipPath id="clip0_3479_13759">
<rect width="446" height="298" fill="white"/>
</clipPath>
</defs>
</svg>
