<svg width="34" height="40" viewBox="0 0 34 40" fill="none" xmlns="http://www.w3.org/2000/svg">
<path d="M13.6897 13.4167C13.2884 14.4354 12.9788 14.881 12.9788 14.881C12.6017 15.4238 11.9459 16.0794 11.4888 16.9368C11.4357 17.0363 11.3869 17.1398 11.3503 17.2468C11.2838 17.089 11.2214 16.919 11.1669 16.736C10.8736 15.7509 10.9536 14.9024 11.0324 14.4398C10.8992 15.0152 10.6895 16.288 11.1893 17.7364C11.4191 18.4022 11.736 18.923 12.0174 19.3012C12.0824 19.4149 12.1485 19.5278 12.2159 19.6401C12.2748 19.5788 12.3326 19.5112 12.3264 19.4495C12.5288 19.5659 12.7313 19.6822 12.9338 19.7986C13.3604 20.0437 13.6702 20.2673 13.7279 20.3077C14.4664 20.8239 15.2321 22.2408 15.3938 22.5451C15.267 22.1436 15.0179 21.525 14.5193 20.8968C13.9617 20.1943 13.343 19.7962 12.9608 19.5895C13.5219 19.6211 14.1387 19.6838 14.7996 19.7941C15.3192 19.8809 15.8022 19.9865 16.2459 20.1011C16.3785 20.093 16.511 20.0847 16.6435 20.0766C16.7624 20.0693 16.8814 20.062 17.0003 20.0547C17.1192 20.062 17.2382 20.0693 17.3571 20.0766C17.4897 20.0847 17.6222 20.093 17.7547 20.1011C18.1983 19.9865 18.6814 19.881 19.2011 19.7941C19.862 19.6837 20.4787 19.6211 21.0398 19.5895C20.6575 19.7962 20.0389 20.1944 19.4813 20.8968C18.9827 21.525 18.7336 22.1436 18.6069 22.5451C18.7685 22.2408 19.5343 20.8239 20.2727 20.3077C20.3304 20.2674 20.6403 20.0437 21.0669 19.7986C21.2693 19.6822 21.4718 19.5659 21.6742 19.4495C21.668 19.5112 21.7258 19.5788 21.7847 19.6401C21.8522 19.5279 21.9182 19.4149 21.9833 19.3012C22.2645 18.9231 22.5815 18.4022 22.8113 17.7364C23.3113 16.288 23.1015 15.0152 22.9683 14.4398C23.047 14.9024 23.127 15.7509 22.8337 16.736C22.7793 16.919 22.7169 17.089 22.6504 17.2468C22.6138 17.1398 22.5649 17.0363 22.5118 16.9368C22.0546 16.0794 21.399 15.4238 21.0218 14.881C21.0218 14.881 20.7122 14.4354 20.311 13.4167C19.4403 11.2059 21.0126 8.76743 21.0431 6.01867C19.7474 5.6982 18.3934 5.52832 17.0002 5.52832C15.6071 5.52832 14.2531 5.6982 12.9573 6.01867C12.988 8.76743 14.5603 11.2059 13.6897 13.4167Z" fill="white"/>
<path d="M23.1578 6.69425C23.073 5.60985 22.8612 4.31183 22.3916 2.90422C22.005 1.74553 21.5313 0.775194 21.0829 9.91004e-05C21.4907 1.05974 21.8816 2.3543 22.12 3.85558C22.2611 4.74474 22.3309 5.59584 22.3493 6.40016C22.3819 7.82797 22.2515 9.10701 22.0648 10.1836C21.885 11.636 21.68 12.3994 22.2952 13.0416C22.6103 13.3705 23.2952 13.8292 23.8089 13.5873C23.9618 13.5152 24.0737 13.3932 24.1557 13.258C24.2912 13.8018 24.3976 14.427 24.4311 15.122C24.5527 17.6459 23.6426 19.5863 23.125 20.5102C23.5541 19.8345 24.1838 18.6553 24.4704 17.0544C24.5875 16.4005 24.7767 14.9534 24.3807 13.2121C24.346 13.0596 24.3093 12.916 24.2722 12.7818C24.052 11.7312 23.7658 10.6932 23.6349 9.6278C23.5616 9.03029 23.6637 8.3792 23.8391 7.80402C23.7948 9.78225 24.9665 11.4961 25.6249 13.3589C26.4653 15.7362 26.3971 18.5422 24.9935 20.6285C25.0313 20.7359 25.1074 20.8495 25.1947 20.9212C24.4216 21.2404 23.7495 21.7787 23.1784 22.3961C24.1024 21.7893 25.0949 21.2114 26.1957 21.2215C25.6332 21.7526 25.6041 22.6228 25.2728 23.326C24.9049 24.1072 24.1476 24.6847 23.3084 24.8372C23.3256 24.8305 23.3429 24.8241 23.3599 24.8177C23.6011 24.7268 23.8328 24.6096 24.0496 24.4689C24.1396 24.4104 24.2275 24.3476 24.3046 24.2727C24.3856 24.1942 24.454 24.1033 24.5173 24.0096C24.8756 23.4791 25.0985 22.8345 25.0686 22.1922C24.7812 22.3896 24.4936 22.5869 24.2061 22.7843C23.9238 22.9781 23.6382 23.1747 23.4114 23.433C22.922 23.9902 22.769 24.7499 22.6861 25.5031C22.6861 25.5031 22.6848 25.5067 22.6842 25.5084C21.7457 26.1443 20.6829 26.6455 19.6046 26.9834C19.2595 27.5731 19.0612 28.2937 19.0739 28.9793C19.1771 28.5658 19.2737 28.1925 19.4602 27.8101C20.1541 27.5473 20.8898 27.3187 21.6255 27.2315C21.8347 26.9197 22.0408 26.5645 22.25 26.2527C22.0892 26.8191 22.1187 27.4245 22.154 28.013C21.4966 28.3692 20.9837 29.0484 20.6285 29.7128C19.8129 31.2384 19.467 33.018 19.6508 34.7433C19.2995 35.2419 19.024 35.8502 18.7215 36.3808C18.4567 36.4597 18.1679 36.5871 17.9201 36.7105C18.1569 36.2699 18.3223 35.8632 18.559 35.4227C18.3093 35.511 18.0638 35.5864 17.8466 35.7393C17.6641 35.8678 17.568 36.0771 17.492 36.3021C17.4961 36.376 17.5096 36.4515 17.5359 36.5276C17.5852 36.6704 17.6665 36.7788 17.7433 36.8568C17.9949 36.9846 18.7214 37.3108 19.6269 37.1297C19.8753 37.0799 20.5364 36.938 21.0619 36.3567C21.1609 36.2472 21.4018 35.9598 21.5553 35.5154C21.7739 34.8821 21.5821 34.6037 21.5329 32.9918C21.5208 32.6 21.5181 32.1577 21.6898 31.6732C21.8067 31.3429 21.9568 31.1281 22.1114 30.972C22.2613 30.8207 22.4047 30.7377 22.4762 30.6944C23.1115 30.3089 23.7832 29.985 24.4791 29.7288C24.9293 29.5631 25.4272 29.3968 25.6812 28.985C25.9654 28.524 25.8386 27.9203 25.6371 27.4164C25.4357 26.9126 25.1637 26.4101 25.1816 25.8667C25.1911 25.5799 25.283 25.3006 25.4118 25.045C25.5905 24.6905 25.8422 24.374 26.1461 24.1217C26.3523 23.9505 26.6023 23.8096 26.779 23.6098C26.8191 23.5595 26.8572 23.5077 26.8927 23.4538C26.8602 23.5101 26.8217 23.5616 26.779 23.6098C26.4978 23.9635 26.1221 24.2403 25.8642 24.6141C25.5099 25.1277 25.258 25.8265 25.5248 26.3918C25.7345 26.8362 26.012 27.2466 26.199 27.7013C26.3862 28.1559 26.4768 28.6809 26.2968 29.1385C26.0861 29.674 25.5567 30.0041 25.0369 30.2382C24.5407 30.4617 24.0234 30.6327 23.5193 30.8373C23.0806 31.0154 22.631 31.2363 22.3617 31.6299C21.9541 32.2255 22.0718 33.0244 22.1833 33.7405C22.268 34.2843 22.3395 34.8374 22.2754 35.384C22.245 35.6443 22.1092 36.2868 21.593 36.8438C21.263 37.2 20.9246 37.3551 20.5238 37.5386C20.152 37.7089 19.5779 37.964 18.8195 37.9252C18.4339 37.9054 18.1238 37.816 17.9225 37.7433C17.7893 37.8105 17.5053 37.9301 17.1377 37.9024C17.0896 37.8988 17.0436 37.8929 17 37.8854C16.9564 37.8929 16.9104 37.8988 16.8623 37.9024C16.4948 37.9301 16.2107 37.8105 16.0775 37.7433C15.8762 37.816 15.5661 37.9054 15.1805 37.9252C14.4221 37.964 13.848 37.709 13.4763 37.5386C13.0754 37.355 12.737 37.2 12.407 36.8438C11.8908 36.2868 11.755 35.6442 11.7246 35.384C11.6605 34.8374 11.732 34.2843 11.8167 33.7405C11.9282 33.0244 12.0458 32.2255 11.6383 31.6299C11.369 31.2362 10.9194 31.0154 10.4807 30.8373C9.97662 30.6327 9.45926 30.4617 8.96311 30.2382C8.44335 30.0042 7.91398 29.6741 7.70319 29.1385C7.52323 28.6809 7.61381 28.1559 7.80087 27.7013C7.98794 27.2466 8.26539 26.8362 8.47508 26.3918C8.74192 25.8264 8.48999 25.1276 8.13567 24.6141C7.87784 24.2403 7.50211 23.9635 7.22086 23.6098C7.17812 23.5616 7.13958 23.5101 7.10715 23.4538C7.14279 23.5077 7.18082 23.5596 7.22086 23.6098C7.39762 23.8096 7.64764 23.9505 7.85382 24.1217C8.1577 24.3739 8.40942 24.6904 8.58808 25.045C8.7169 25.3006 8.80878 25.5799 8.81829 25.8667C8.8362 26.4101 8.56416 26.9126 8.36278 27.4164C8.1613 27.9203 8.03448 28.524 8.31874 28.985C8.57267 29.3968 9.07061 29.5631 9.52081 29.7288C10.2167 29.985 10.8884 30.3089 11.5237 30.6944C11.5952 30.7377 11.7386 30.8207 11.8885 30.972C12.0432 31.1281 12.1932 31.3429 12.3101 31.6732C12.4818 32.1578 12.4791 32.6 12.467 32.9918C12.4177 34.6037 12.226 34.8821 12.4446 35.5154C12.5981 35.9598 12.839 36.2472 12.938 36.3567C13.4635 36.938 14.1246 37.08 14.3731 37.1297C15.2785 37.3108 16.0051 36.9847 16.2566 36.8568C16.3334 36.7788 16.4147 36.6704 16.464 36.5276C16.4903 36.4515 16.5037 36.376 16.5079 36.3021C16.4319 36.0771 16.3358 35.8678 16.1533 35.7393C15.9362 35.5864 15.6905 35.511 15.4409 35.4227C15.6776 35.8632 15.8431 36.2699 16.0798 36.7105C15.8321 36.5871 15.5432 36.4597 15.2784 36.3808C14.9759 35.8502 14.7004 35.2419 14.3491 34.7433C14.5329 33.018 14.187 31.2384 13.3714 29.7128C13.0161 29.0484 12.5033 28.3692 11.8459 28.013C11.8812 27.4245 11.9108 26.8192 11.7499 26.2527C11.9592 26.5645 12.1652 26.9197 12.3744 27.2315C13.1101 27.3186 13.8458 27.5473 14.5397 27.8101C14.7261 28.1925 14.8228 28.5657 14.926 28.9793C14.9386 28.2937 14.7404 27.5732 14.3953 26.9834C13.317 26.6455 12.2541 26.1443 11.3156 25.5084C11.3151 25.5067 11.3143 25.5049 11.3143 25.5049C11.2309 24.7498 11.0779 23.9901 10.5885 23.4329C10.3617 23.1747 10.0761 22.978 9.79376 22.7842C9.5062 22.5868 9.21874 22.3895 8.93129 22.1921C8.90126 22.8343 9.12426 23.4789 9.48258 24.0095C9.54594 24.1032 9.6143 24.1941 9.69527 24.2726C9.77254 24.3475 9.86032 24.4103 9.9503 24.4688C10.167 24.6095 10.3987 24.7266 10.64 24.8175C10.6571 24.8239 10.6743 24.8304 10.6915 24.8371C9.85231 24.6846 9.09503 24.107 8.7271 23.3259C8.39581 22.6227 8.36668 21.7525 7.80418 21.2214C8.90496 21.2113 9.89755 21.7892 10.8215 22.396C10.2505 21.7786 9.57836 21.2404 8.80517 20.9211C8.89265 20.8494 8.96862 20.7358 9.00635 20.6284C7.6028 18.542 7.53464 15.7361 8.37499 13.3588C9.03338 11.496 10.2051 9.78215 10.1608 7.80392C10.3363 8.3791 10.4384 9.03019 10.365 9.6277C10.2342 10.6931 9.9479 11.7311 9.7277 12.7817C9.69047 12.9159 9.65383 13.0595 9.6192 13.212C9.22325 14.9532 9.41242 16.4004 9.52952 17.0543C9.81608 18.6553 10.4458 19.8344 10.8749 20.5101C10.3573 19.5861 9.44725 17.6458 9.56876 15.1219C9.60229 14.4269 9.70858 13.8017 9.8442 13.2579C9.92618 13.3931 10.0381 13.5152 10.191 13.5872C10.7047 13.8291 11.3896 13.3704 11.7047 13.0415C12.3199 12.3994 12.1149 11.6359 11.9351 10.1835C11.7484 9.1069 11.618 7.82787 11.6506 6.40006C11.669 5.59584 11.7387 4.74474 11.8799 3.85548C12.1183 2.3541 12.5092 1.05964 12.917 0C12.4686 0.775095 11.9949 1.74543 11.6083 2.90412C11.1386 4.31173 10.9268 5.60975 10.8421 6.69415C4.49732 9.1952 0 15.447 0 22.7641C0 32.2832 7.6111 40 17 40C26.3888 40 34 32.2832 34 22.7641C33.9999 15.4471 29.5026 9.1953 23.1578 6.69425Z" fill="white"/>
</svg>
